<?xml version="1.0" encoding="UTF-8"?>
<svg id="Layer_1" data-name="Layer 1" xmlns="http://www.w3.org/2000/svg" viewBox="0 0 2325.27 329.13">
  <path d="M1640.69,324.9h-23.37c1.57-1.26-10.71-1.04-15.31-1.38-46.89-3.49-92.3-16.93-132.51-41.39-30.56-18.17-57.31-43.02-70.59-76.71-11.24,28.69-33.95,51.98-59.66,69.59-41.31,28.08-88.05,42.92-137.73,48.12-2.42.25-5.62.66-7.91.66h-69.01c-2.29,0-5.54-.38-7.9-.65-46.42-5.35-88.48-17.53-128.07-42.2-30.48-18.99-54.3-41.5-68.35-74.78-17.11,38.41-45.67,62.1-81.34,81.86-38.38,21.25-80.77,32.51-124.6,35.61-8,.57-22.41-.5-25.15,1.28h-13.63c-8.7-1.33-17.75-.65-27.21-1.24l-8.95-.56c-62.89-3.92-144.52-37.42-182.73-89.49-31.93-43.52-28.82-101.67,6.56-141.95,12.46-14.19,26.16-26.19,42.45-36.46,55.48-34.99,113.18-47.35,178.59-46.86,63.48.48,121.55,14,174.63,49,18.04,11.89,33.47,26.15,46.31,43.41,5.52,7.42,9.34,15.44,13.48,23.64l.99,1.96c.17.34,1.26-1.05,1.41-1.39,15.03-34.46,42.79-58.26,75.06-76.98,43.15-25.04,91.97-37.09,141.86-38.94,49.35-1.82,92.3,1.33,138.8,17.99,29.89,10.71,57.46,25.47,81.64,46.03,17.64,14.99,30.99,32.53,40.17,54.04,5.77-10.8,10.18-20.4,17.12-29.4,12.6-16.32,27.7-29.49,44.98-40.81,43.61-28.58,90.76-43.41,142.91-47.19,55.49-4.02,111.92.55,163.55,21.79,37.42,15.4,76.17,39.73,98.62,73.72,25.42,38.49,24.6,87.92-1.87,125.66-28.11,40.07-78.94,67.82-125.51,81.06-19.63,5.58-39.21,9.92-59.64,11.1l-10.9.63c-9.35.54-18.61-.79-27.19,1.23ZM777.5,249.53c19.15-10.28,37.02-23.51,49.08-41.61,19.94-29.9,15.51-68.09-9.02-93.95-17.57-18.53-39.41-32.2-64.14-40.42-43.15-14.34-89.99-15.19-133.89-3.52-28.95,7.69-54.6,22.02-75.2,43.14-25.24,25.87-29.7,64.85-9.36,95.08,12.05,17.92,29.65,30.91,48.62,41.15,54.09,29.21,139.72,29.2,193.92.12ZM1293.54,222.63c25.21-24.55,32.2-62.51,14.23-93.34-17.98-30.87-58.3-52.68-92.62-60.61-65.6-15.15-140.84-5.62-190.4,42.79-28.61,27.95-31.91,71.22-7,102.6,27.36,34.47,77.91,53.81,121.32,56.36,56.92,3.35,112.77-7.21,154.46-47.81ZM1767.49,227.08c22.25-19.59,32.16-43.77,27.91-73.34-4.74-32.96-34.22-56.35-62.2-70.63-18.76-9.57-38.33-15.51-59.37-18.43-31.95-4.44-63.55-3.51-94.68,4.83-38.19,10.23-83.86,35.41-96.09,75.29-7.54,24.61-1.76,50.12,13.98,69.99,6.9,8.71,14.44,15.49,23.63,22.01,43.52,30.83,95.23,38.35,147.63,32.67,36.62-3.97,71.6-18.11,99.18-42.38Z"/>
  <path d="M2067.26,324.9h-15.58l-42.45-1.7-117.41-3.03-2.77-47.7,61.66-.09V56.59s-75.9,4.07-75.9,4.07l-.1-49.34,152.11-2.84c54.52-2.83,102.11,3.24,152.62,23.46,23.57,9.43,45.02,20.86,64.97,36.56,25.81,20.32,48.05,49.78,50.52,83.47.67,9.09.66,18.16.02,27.28-1.34,19.31-9.61,37.12-20.77,52.81-17.18,24.15-45.21,45.42-71.64,58.98-34.74,17.82-72.27,27.24-111.05,30.98-8.61.83-16.45,1.36-24.22,2.89ZM2207.5,177.48c1.14-8.66.95-17.7-.58-26.35-4.64-26.23-28.51-49.35-50.82-62.44-24.01-14.09-50.96-22.64-78.99-24.59-11.17-.77-21.76,1.03-32.67,1.85l-7.81,188.77c-.23,5.5.08,9.54.35,15.33,46.42,1.5,84.34-4.38,124.02-29.56,22.08-14.01,42.97-36.11,46.51-63.01Z"/>
  <path d="M29.85,52.92V12.12l341.46,2.44.53-10.26c22.45-.54,37.22,2.09,60.77.64l1.88,101.4h-63.69s-.29-32.11-.29-32.11l-125.29-7.43c-4.93-.29-8.99-.02-13.69.45l-4.25,75.02h46.48c1.05-6.68,1.52-13.37,1.52-20.42l1.54-13.58h47.18s-1.53,52.46-1.53,52.46l-2.28,65.56-51,3.41,2.71-38.9-47.31.28-3.77,74.21,77.91-3.04-.27,56.84-193.43,2.71-45.94.23v-48.62s68.17,0,68.17,0l-7.62-216.18-24.56-1.26c-22.09-1.13-43.74-1.01-65.2-3.06Z"/>
</svg>