<?xml version="1.0" encoding="UTF-8"?>
<svg id="Layer_1" data-name="Layer 1" xmlns="http://www.w3.org/2000/svg" viewBox="0 0 757.54 757.54">
  <defs>
    <style>
      .cls-1 {
        fill: #484a9f;
      }

      .cls-2, .cls-3 {
        fill: #fff;
      }

      .cls-3 {
        font-family: Didot-Bold, Didot;
        font-size: 45.62px;
        font-weight: 700;
        letter-spacing: .4em;
      }
    </style>
  </defs>
  <rect class="cls-1" width="757.54" height="757.54" rx="190.24" ry="190.24"/>
  <g>
    <text class="cls-3" transform="translate(127.11 587.52) rotate(.02)"><tspan x="0" y="0">FOUNDATION</tspan></text>
    <g>
      <path class="cls-2" d="M214.87,357.77c-2.03-7.64-.18-9.98,5.64-9.8,16.01.49,32.07-.14,48.05.87,45.71,2.9,91.33-2.49,136.99-1.4,14.13.34,28.25,2.4,42.33,4.04,1.86.22,3.52,2.58,5.28,3.95-1.97,1.13-3.95,3.26-5.92,3.25-23.06-.12-46.12-.8-69.17-.87-54.32-.15-108.65-.05-163.19-.05Z"/>
      <path class="cls-2" d="M480.59,315.03c-12.83-10.33-13.43-26.75-1.28-35.88-4.32-4.36-7.11-9.61-8.49-15.55-3.29-14.13-3.12-28.11,2.73-41.57,1.55-3.58,3.96-6.98,6.67-9.81,4.88-5.11,11.26-6.7,17.85-4.27,4.03,1.49,7.95,1.59,12.01,1.62,2.38.02,4.76-.11,7.13.07.86.07,1.66.85,2.49,1.31-.84.6-1.66,1.65-2.53,1.71-3.31.2-6.64.08-9.61.08,2.28,5.81,5.05,11.08,6.39,16.68,3.14,13.12,2.4,26.26-3,38.71-1.83,4.23-4.77,8.29-8.11,11.49-5.41,5.17-12.11,5.92-18.88,2.49-1.79-.91-2.9-.72-4.3.43-3.61,2.95-5.18,8.15-3.81,12.94,1.19,4.17,4.65,6.95,9.62,7.42,5.38.51,10.77.78,16.16,1.2,13.28,1.03,20.52,7.36,22.2,20.49,1.6,12.51-1.11,24.12-9.81,33.73-8.09,8.93-19.95,11.25-31.1,6.38-9.83-4.3-15.38-14.42-14.8-26.17.42-8.6,3.94-15.56,10.06-21.39.77-.73,1.6-1.39,2.43-2.1ZM491.09,315.7s0,.06,0,.09c-1.08-.1-2.19-.06-3.22-.33-3.74-.96-5.87.61-7.12,4.08-4.1,11.42-4.18,22.85.15,34.18,1.69,4.4,4.95,7.53,9.65,8.92,8.86,2.62,17.21-1.47,20.66-10.39,2.96-7.67,3.17-15.63,1.5-23.59-1.72-8.23-5.32-11.4-13.54-12.36-2.68-.31-5.38-.4-8.08-.59ZM503.22,244.57c-.17-.02-.34-.05-.52-.07-.21-4.75,0-9.56-.74-14.22-.86-5.48-1.89-11.11-4.04-16.17-2.25-5.31-8.22-5.22-11.23-.25-1.26,2.08-2.2,4.5-2.66,6.88-2.86,14.98-2.65,30.08-.81,45.13.49,3.97,1.75,8.08,3.67,11.58,2.67,4.89,8.01,4.58,10.76-.29,1.15-2.03,2.18-4.33,2.49-6.61,1.2-8.64,2.08-17.32,3.07-25.98Z"/>
      <path class="cls-2" d="M413.9,225.19c1.63-3.52,2.72-6.57,4.36-9.3,6.59-10.99,20.76-12.04,28.97-2.21,5.01,5.99,6.89,13.18,6.93,20.78.14,23.54.07,47.09.13,70.64,0,3.78.3,7.55.4,11.32.07,2.59,1.31,3.72,3.9,3.48,1.07-.1,2.21-.2,3.22.06.78.19,1.41.95,2.11,1.45-.75.54-1.49,1.53-2.25,1.54-6.26.13-12.53.07-18.79.08-2.48,0-4.98.11-7.45-.08-.71-.05-1.36-.94-2.03-1.44.67-.53,1.29-1.43,2.02-1.54,5.95-.95,6.18-.9,6.2-6.99.1-26.89.15-53.79-.01-80.68-.02-3.81-.97-7.71-2.09-11.39-1.28-4.19-4.21-6.99-8.87-7.41-4.8-.43-8.94,1.36-10.72,5.66-2.32,5.6-4.9,11.61-5.03,17.5-.55,24.29-.22,48.6-.21,72.9,0,1.3.02,2.59.1,3.89.34,5.81.35,5.75,6.04,6.52.79.11,1.46,1.11,2.18,1.69-.72.45-1.44,1.3-2.17,1.31-8.75.09-17.5.09-26.24,0-.7,0-1.4-.9-2.09-1.38.75-.56,1.45-1.53,2.25-1.62,6.99-.81,7.24-.77,7.26-7.56.1-30.67.04-61.35.03-92.02,0-.54-.06-1.08-.11-1.62-.48-5.75-.48-5.69-6.33-5.92-1.05-.04-2.07-.86-3.11-1.33,1.06-.56,2.11-1.57,3.19-1.61,4.85-.18,9.72.05,14.58-.13,2.93-.11,3.77,1.11,3.64,3.84-.17,3.66-.04,7.33-.04,11.58Z"/>
      <path class="cls-2" d="M168.23,209.93c.12-.51.12-.96.32-1.3.45-.75.99-1.43,1.5-2.14.38.82,1.1,1.63,1.1,2.45.08,10.46.08,20.93-.01,31.39,0,.82-.88,1.64-1.36,2.46-.4-.78-1.11-1.55-1.14-2.35-.26-7.17-.7-14.35-3.6-20.99-1.46-3.36-3.47-6.67-5.94-9.34-3.16-3.43-7.37-2.76-9.46,1.39-1.46,2.88-2.5,6.2-2.79,9.41-1.13,12.66,2.44,24.01,10.33,34.02,3.89,4.94,7.96,9.8,11.27,15.12,8.67,13.95,9.04,28.84,3.15,43.8-5.18,13.17-16.9,16.76-29.14,9.57-.79-.46-1.58-.91-2.06-1.19-.76,1.18-1.47,3.05-2.05,3.01-2.22-.15-1.26-2.19-1.32-3.43-.51-11.39-.91-22.78-1.35-34.17-.02-.43-.06-.85-.05-1.27.04-1.13-.39-2.73,1.43-2.59.53.04,1.26,1.53,1.35,2.41.35,3.29.3,6.63.72,9.91.87,6.86,2.47,13.57,5.93,19.64,1.24,2.18,2.82,4.31,4.7,5.96,4.43,3.89,10.52,3.04,13.22-2.19,1.7-3.29,2.72-7.18,3.07-10.89,1.27-13.47-3.08-25.16-11.62-35.62-4.7-5.76-9.43-11.77-12.73-18.37-6.22-12.44-5.7-25.48-.51-38.29.79-1.94,2.01-3.76,3.31-5.42,4.76-6.08,11.51-7.59,18.43-4.18,1.79.89,3.45,2.06,5.31,3.18Z"/>
      <path class="cls-2" d="M196.11,258.84c.06,15.92-.5,31.49,3.86,46.63.82,2.85,2.11,5.71,3.78,8.15,5.47,8.02,16.77,7.8,22.06-.35,4.09-6.29,4.72-13.55,5.28-20.78.17-2.15-.08-4.34.23-6.46.13-.88,1.23-1.62,1.89-2.43.65.79,1.87,1.58,1.88,2.38.11,9.43-.4,18.81-4.46,27.56-5.84,12.57-20.93,16.05-31.75,7.3-7.41-5.99-11.14-14.27-13.2-23.21-5.55-24.07-5.2-48,3.53-71.32,1.84-4.91,5.01-9.63,8.57-13.52,7.21-7.88,17.6-7.73,25.25-.21,7.13,7.01,9.81,16.11,11.22,25.62.69,4.68.8,9.46.89,14.2.09,4.69-1.6,6.33-6.52,6.39-9.07.11-18.14.05-27.21.06-1.61,0-3.22,0-5.29,0ZM196.12,254.87c6.5,0,12.64.22,18.75-.07,4.32-.21,6.53-2.62,6.5-6.97-.05-6.79-.11-13.63-.94-20.35-.54-4.4-1.85-8.94-3.88-12.87-2.94-5.68-9.84-5.87-13.59-.68-1.6,2.22-2.79,4.89-3.55,7.54-3.12,10.79-3.26,21.91-3.29,33.4Z"/>
      <path class="cls-2" d="M327.81,296.96c3.78-20.13,7.73-40.23,11.21-60.41.91-5.24.72-10.76.39-16.11-.36-5.88-1.77-6.92-7.56-7.91-.75-.13-1.38-1.01-2.06-1.54.69-.49,1.38-1.39,2.08-1.4,6.69-.1,13.39-.09,20.09,0,.6,0,1.18.87,1.77,1.33-.43.53-.8,1.46-1.29,1.52-3.42.42-3.88,3.28-4.45,5.66-1.92,8.08-3.63,16.2-5.31,24.33-5.47,26.51-10.88,53.03-16.39,79.53-.36,1.74.14,4.31-3.18,4.29-2.38-.01-3.38-.68-3.87-3.11-6.82-33.83-13.74-67.64-20.66-101.44-.43-2.1-.86-4.29-1.81-6.18-.62-1.22-2.2-1.94-3.32-2.92-.7-.6-1.35-1.26-2.03-1.89.76-.4,1.51-1.15,2.27-1.16,7.88-.09,15.77-.1,23.65,0,.81.01,1.6.91,2.41,1.4-.79.54-1.54,1.46-2.39,1.57-4.87.63-5.46.95-4.67,5.77,2.12,12.98,4.5,25.92,6.84,38.87,2.27,12.52,4.62,25.03,6.95,37.54.13.72.36,1.41.54,2.12.27.04.53.08.8.12Z"/>
      <path class="cls-2" d="M263.49,225.35c2.07-4.26,3.64-8.04,5.7-11.53,1.17-1.98,2.94-3.75,4.78-5.17,3.15-2.43,7.07-2.18,10.2.23,5.27,4.06,8.64,14.9,6.6,21.23-.99,3.06-3.29,4.71-6.58,4.72-3.48.01-6.62-1.55-6.91-4.63-.37-3.96.24-8.06.84-12.03.31-2.05,1.52-3.96,2.4-6.13-2.32-1.28-4.42-.92-6.02.69-1.72,1.73-3.4,3.69-4.47,5.86-3.53,7.2-5.92,14.64-5.83,22.92.25,22.24.07,44.49.12,66.73,0,2.91.3,5.82.46,8.72.12,2.14,1.24,3.04,3.38,2.95,1.94-.09,3.91-.18,5.82.08.79.11,1.47,1.1,2.2,1.69-.73.45-1.46,1.29-2.19,1.29-9.93.09-19.87.09-29.8,0-.69,0-1.38-.92-2.06-1.41.65-.55,1.28-1.14,1.97-1.62.22-.15.63-.05.96-.04,5.97.14,6.22.67,6.52-6.55.32-7.55.19-15.11.2-22.67.02-20.52.03-41.03-.02-61.55,0-3.77-.22-7.56-.55-11.32-.35-4.02-1.36-4.84-5.28-4.9-.65,0-1.36.16-1.93-.06-.69-.26-1.25-.85-1.86-1.29.62-.56,1.23-1.6,1.86-1.61,5.72-.13,11.45-.2,17.16.03.81.03,2.17,1.67,2.23,2.63.25,4.08.11,8.19.11,12.75Z"/>
      <path class="cls-2" d="M379.04,263.41c0,14.25,0,28.5,0,42.75,0,2.27-.04,4.54.1,6.8.52,8.07.96,7.18,6.88,7,.88-.03,1.79.98,2.69,1.51-.88.52-1.76,1.47-2.65,1.48-8.85.11-17.7.11-26.56,0-.89-.01-1.76-.96-2.65-1.48.89-.53,1.81-1.55,2.68-1.51,6.6.28,6.46.05,6.8-7.02.31-6.36.17-12.73.18-19.1.01-22.24,0-44.48,0-66.72,0-2.7.02-5.4-.18-8.09-.5-6.94-.65-6.34-6.46-6.38-1.01,0-2.01-.98-3.01-1.5.98-.52,1.96-1.47,2.95-1.5,5.18-.15,10.37.07,15.54-.13,2.84-.11,3.74.86,3.73,3.7-.1,16.73-.05,33.47-.05,50.2Z"/>
      <path class="cls-2" d="M381.66,167.15c-.02,7.31-5.34,11.9-11.64,10.07-4.28-1.25-6.91-5.85-6.37-11.13.55-5.42,3.93-9.28,8.42-9.63,5.35-.41,9.61,4.34,9.59,10.69Z"/>
      <g>
        <path class="cls-2" d="M592.2,265.32c1.64,1.08,2.87,1.76,3.99,2.66,6.03,4.86,6.34,14.72.63,20.18-2.71,2.6-5.84,3.93-9.15,4.07-5.95.26-11.9.25-17.85.3-8.93.07-17.86.05-26.79.15-3.05.03-3.12.24-3.15,4.17,0,.3.08.68-.02.9-.27.56-.62,1.04-.94,1.55-.24-.51-.69-1.02-.7-1.54-.07-2.67-.04-5.34-.04-8,0-3.35-.04-6.71.03-10.06.02-.67.47-1.33.73-1.99.31.61.85,1.19.89,1.83.27,3.71.33,3.96,3.18,3.97,14.94.05,29.89.1,44.83-.06,2.15-.02,4.43-.79,6.41-1.94,3.97-2.32,4.33-8.49.81-11.84-3-2.86-6.54-4.24-10.17-4.29-13.19-.17-26.38-.07-39.58-.04-1.22,0-2.44.22-3.67.28-1.31.07-1.9.9-1.78,2.63.04.6.1,1.27-.06,1.81-.13.46-.56.77-.86,1.15-.26-.42-.71-.82-.73-1.26-.09-1.75-.04-3.5-.04-5.26,0-4.42-.03-8.84.03-13.26,0-.59.46-1.17.71-1.75.32.59.87,1.15.91,1.77.32,4.7.29,4.73,3.88,4.95,1.51.09,3.03.09,4.55.09,23,0,46,0,69-.01,1.98,0,3.96-.21,5.95-.28,1.37-.05,2.04-.84,1.92-2.71-.06-.91-.09-1.85.06-2.73.07-.42.55-.85.91-1,.14-.06.67.64.67,1.01.05,4.42.06,8.84-.02,13.26,0,.43-.58,1.05-.98,1.22-.53.22-1.15.08-1.74.08-10.45,0-20.89,0-31.84,0Z"/>
        <path class="cls-2" d="M572.87,323.38c-8.63.03-17.09-.35-25.33,2.75-1.38.52-2.75,1.32-3.96,2.33-4.79,4.02-4.64,12.44.27,16.21,3.37,2.59,7.16,3.05,10.96,3.4,1.16.11,2.35-.04,3.49.16.43.08.79.83,1.18,1.27-.41.48-.82,1.37-1.24,1.38-5.1.09-10.17-.27-14.9-3.12-6.81-4.1-8.71-14.74-4.01-22.39,2.98-4.85,7.06-7.48,11.53-8.97,13.32-4.43,26.58-4.16,39.55,2.09,2.71,1.31,5.31,3.61,7.44,6.19,4.13,4.97,4.06,12.18.17,17.49-3.83,5.23-8.86,7.13-14.13,8.15-2.3.44-4.65.53-6.98.62-3.2.11-4.02-.97-4.04-5.24-.03-6.1-.01-12.19-.01-18.29,0-1.22,0-2.43,0-4.02ZM574.98,323.38c0,4.46-.09,8.58.03,12.68.1,3.55,1.37,5.18,4.09,5.16,3.5-.03,7.02-.04,10.48-.63,2.49-.43,5.06-1.36,7.28-2.87,2.99-2.02,3.05-6.8.35-9.46-1-.99-2.2-1.77-3.4-2.26-6.08-2.52-12.37-2.56-18.82-2.62Z"/>
        <path class="cls-2" d="M597.61,215.74c0-1.98-.06-3.65.04-5.31.03-.52.48-1,.73-1.5.26.5.68.96.74,1.5.2,1.65.27,3.33.41,5.31h6.08c.93,0,1.88.1,2.8-.02,2.96-.37,5.56.23,7.79,3.22,1.1,1.47,2.77,2.2,4.15,3.33.51.42.92,1.03,1.38,1.55l-.25.7h-21.99c0,3.11.06,5.91-.04,8.69-.03.7-.58,1.36-.9,2.04-.32-.67-.89-1.32-.92-2.01-.11-2.73-.04-5.47-.04-8.47-.73-.05-1.35-.13-1.96-.13-15.53,0-31.06-.03-46.6.03-2.27,0-4.54.3-6.79.66-1.36.22-2.47,1.19-2.55,3.2-.08,2.01,1,3.19,2.29,3.55,2.09.59,4.25.77,6.38,1.11.78.12,1.78-.19,1.75,1.48-.03,1.71-1.09,1.42-1.81,1.3-2.47-.4-5.06-.48-7.37-1.55-4.71-2.17-5.75-9.38-1.87-13.49,1.91-2.02,4.45-3.35,6.86-4.15,2.62-.86,5.43-.98,8.16-1,13.72-.09,27.44-.04,41.17-.04h2.36Z"/>
      </g>
      <path class="cls-2" d="M378.13,443.11c-.42,17.38-1.6,32.01-8.46,45.9-2.81,5.68-6.53,11.39-11.45,16.17-13.82,13.42-37.45,12.72-50.94-1.01-7.89-8.02-11.73-17.27-13.81-26.87-4.47-20.61-4.19-41.2,1.97-61.64,2.34-7.75,5.96-15.17,11.87-21.88,15.42-17.52,43.39-16.89,57.37,1.33,7.29,9.49,10.27,19.94,11.84,30.63.98,6.66,1.27,13.37,1.62,17.37ZM359.29,441.19c-.62-6.71-1.53-19.46-3.07-32.16-.79-6.5-2.96-12.87-7.87-18.47-7.11-8.09-20.41-8.1-27.58-.06-4.83,5.42-6.93,11.57-8.03,17.86-4.52,25.91-4.41,51.88-.59,77.82,1.01,6.85,3.1,13.63,8.62,19.44,7.25,7.63,20.77,7.63,27.1-.39,3.23-4.09,5.47-8.81,6.88-13.45,4.44-14.65,3.9-29.63,4.55-50.59Z"/>
      <path class="cls-2" d="M158.76,438.83c0,1.61,0,2.71,0,3.81,0,17.04,0,34.07.02,51.11,0,1.88,0,3.76.12,5.63.63,10.04.74,8.43,8.98,8.65,1.72.05,4.73-1.32,4.83,1.76.11,3.24-2.98,1.9-4.65,1.91-11.27.12-22.55.12-33.82-.01-1.18-.01-2.35-1.08-3.52-1.66,1.19-.69,2.35-1.92,3.57-1.98,6.89-.32,6.95-.22,7.43-7.22.21-3,.2-6.01.2-9.01.01-44.34.02-88.68-.01-133.03,0-4-.34-8-.49-12-.11-2.94-1.53-4.34-4.53-4.14-1.5.1-3.03.15-4.49-.11-.63-.11-1.64-1.12-1.56-1.57.13-.76.98-1.39,1.55-2.06.06-.07.24-.03.37-.03,13.65.11,27.35-.51,40.93.53,15.59,1.19,25.3,10.67,29.33,25.54,4.82,17.74,4.58,35.52-2.55,52.63-5.84,14.01-17.06,20.76-32.12,21.22-3,.09-6,.01-9.58.01ZM158.89,434.01c2.37,0,4.35.01,6.33,0,11.14-.09,16.68-4.04,19.61-14.79,1.4-5.16,2.33-10.54,2.65-15.87.9-14.89,1.49-29.84-2.35-44.45-3.47-13.21-10.04-16.92-26.23-14.53v89.65Z"/>
      <path class="cls-2" d="M415.28,458.27c-.07,1.09-.15,1.82-.15,2.55,0,13.15,0,26.29.02,39.44,0,1.03.02,2.05.11,3.08.64,7.47.74,6.28,8.98,6.45,1.72.03,4.72-.98,4.84,1.31.12,2.42-2.97,1.42-4.65,1.43-11.27.09-22.55.09-33.82,0-1.18,0-3.26-.7-3.36-1.25-.37-1.93,1.91-1.48,3.4-1.51,6.91-.14,6.96-.12,7.44-5.32.21-2.23.2-4.47.2-6.71.01-33,.02-66.01-.01-99.01,0-2.98-.34-5.96-.49-8.93-.11-2.19-1.52-3.23-4.52-3.09-1.5.07-3.05.14-4.49-.09-.67-.11-1.44-.9-1.57-1.46-.08-.33.98-.82,1.54-1.23.07-.05.24-.02.37-.02,13.65.08,27.35-.38,40.93.39,15.59.89,25.3,7.94,29.34,19.01,4.82,13.21,4.58,26.43-2.55,39.18-5.83,10.43-17.05,15.46-32.12,15.8-3,.07-6,0-9.43,0ZM415.32,387.25v67.32c3.4,0,6.62.07,9.83-.01,6.84-.18,11.52-2.84,14.3-7.35,1.13-1.85,2-3.83,2.59-5.81,3.06-10.4,2.8-20.95,1.76-31.46-.45-4.6-1.81-9.21-3.44-13.68-1.39-3.8-4.5-7.13-10.04-7.99-4.8-.74-9.83-.7-14.99-1.02Z"/>
      <path class="cls-2" d="M239.32,508.59c7.31,0,14.71.4,21.98-.14,5.26-.39,8.57-3.61,11.13-6.94,4.89-6.38,6.52-13.42,7.29-20.62.18-1.67.14-3.36.47-5.02.11-.55,1.06-1.01,1.63-1.51.7.52,1.52.98,2.04,1.59.28.33.02.91,0,1.37-.69,10.61-1.48,21.22-2,31.84-.13,2.62-1.18,3.49-4.82,3.46-20.66-.12-41.33-.06-62-.06-.88,0-1.85.14-2.6-.09-.66-.2-1.47-.83-1.48-1.29-.01-.46.75-1.13,1.4-1.34.74-.24,1.72-.1,2.6-.11,6.35-.04,6.82-.24,6.86-5.09.15-19.48.21-38.97.22-58.45,0-17.99-.05-35.98-.2-53.97-.05-5.37-.31-5.36-7.43-5.58-1.2-.04-3.26-.72-3.36-1.26-.33-1.89,1.9-1.5,3.42-1.51,19.41-.02,38.83.03,58.24-.05,2.98-.01,3.9.72,3.88,2.9-.11,10.81-.05,21.63-.05,32.44,0,.28.13.63-.04.83-.59.68-1.3,1.3-1.96,1.94-.61-.65-1.65-1.27-1.75-1.96-.81-5.45-1.25-10.94-2.22-16.37-.41-2.26-1.63-4.49-2.85-6.62-3.65-6.37-9.88-9.91-19.56-9.52-2.86.12-5.73.02-8.85.02v55.39c10.55,1.27,17-2.19,19.15-10.34.53-2,.47-4.08.93-6.1.19-.84,1.03-1.59,1.57-2.38.67.82,1.9,1.64,1.91,2.47.14,9.13.09,18.27.09,27.41,0,3.64.12,7.28-.09,10.9-.05.91-1.13,1.78-1.74,2.67-.6-.86-1.54-1.67-1.74-2.58-.71-3.2-.62-6.55-1.82-9.63-2.67-6.84-7.97-9.11-18.22-8.29v61.57Z"/>
      <path class="cls-2" d="M572.16,387.49v55.25c8.35,1.66,14.97-.69,17.82-6.85,1.44-3.11,1.54-6.55,2.42-9.82.2-.73,1.11-1.35,1.69-2.02.62.67,1.78,1.34,1.79,2.01.11,13.14.11,26.29,0,39.43,0,.67-1.21,1.34-1.86,2.01-.56-.7-1.46-1.36-1.61-2.1-.66-3.3-.55-6.74-1.75-9.92-2.66-7.04-8.23-9.44-18.35-8.41v61.55c7.35,0,14.62.36,21.79-.12,5.15-.34,8.49-3.37,11.05-6.59,5.11-6.41,6.77-13.55,7.6-20.83.19-1.67.11-3.37.47-5.02.13-.62,1.16-1.14,1.77-1.7.66.65,1.88,1.29,1.88,1.94,0,3.26-.32,6.52-.53,9.78-.51,7.82-1.14,15.64-1.47,23.46-.1,2.49-1.37,3.09-4.54,3.08-20.79-.09-41.58-.05-62.37-.05-.75,0-1.63.16-2.22-.07-.74-.29-1.23-.92-1.83-1.4.65-.45,1.25-.96,1.99-1.31.36-.17.98-.04,1.48-.05,7.28-.12,7.49-.12,7.52-5.74.14-26.1.17-52.2.19-78.31,0-11.37-.06-22.75-.23-34.12-.07-4.61-.56-4.84-6.78-4.87-.88,0-1.85.14-2.6-.1-.65-.2-1.45-.84-1.46-1.29,0-.46.76-1.13,1.4-1.34.74-.24,1.72-.1,2.6-.1,19.04,0,38.08.05,57.11-.05,3.4-.02,4.58.64,4.53,3.28-.18,10.53-.08,21.07-.08,31.6,0,.37.18.83-.04,1.1-.6.75-1.38,1.43-2.08,2.13-.57-.68-1.55-1.34-1.63-2.05-.36-3.06.04-6.21-.74-9.2-1.3-4.99-2.66-10.06-5.15-14.76-3.09-5.8-9.45-8.71-18.1-8.46-3.1.09-6.22.01-9.64.01Z"/>
      <path class="cls-2" d="M495.54,508.57c6.96,0,13.85.4,20.62-.13,5.11-.4,8.41-3.44,10.91-6.71,4.82-6.3,6.42-13.27,7.4-20.33.48-3.52.47-7.07.94-10.59.1-.79,1.26-1.5,1.93-2.25.6.77,1.76,1.56,1.71,2.31-.75,13.13-1.68,26.25-2.5,39.38-.11,1.79-1.13,2.36-3.5,2.35-20.91-.05-41.83-.01-62.74-.09-1.03,0-2.06-.84-3.09-1.29.98-.49,1.99-1.45,2.92-1.4,7.42.36,8.09-.05,8.1-6.2.06-36.91.03-73.82.02-110.73,0-.75-.06-1.49-.12-2.24-.29-3.5-.9-3.81-5.69-3.99-1.81-.07-5.11,1.1-5.07-1.38.04-2.4,3.31-1.33,5.13-1.35,11.02-.1,22.04-.09,33.06,0,1.18.01,3.25.72,3.35,1.27.36,1.93-1.92,1.47-3.41,1.5-9.96.16-10.06.15-10.07,7.58-.04,37.47-.03,74.94-.04,112.41,0,.64.1,1.29.15,1.88Z"/>
    </g>
  </g>
</svg>